<?xml version="1.0" standalone="no"?>
<!DOCTYPE svg PUBLIC "-//W3C//DTD SVG 20010904//EN"
 "http://www.w3.org/TR/2001/REC-SVG-20010904/DTD/svg10.dtd">
<svg version="1.0" xmlns="http://www.w3.org/2000/svg"
 width="500.000000pt" height="500.000000pt" viewBox="0 0 500.000000 500.000000"
 preserveAspectRatio="xMidYMid meet">
<metadata>
Created by potrace 1.15, written by Peter Selinger 2001-2017
</metadata>
<g transform="translate(0.000000,500.000000) scale(0.100000,-0.100000)"
fill="#000000" stroke="none">
<path d="M790 2520 l0 -2190 1411 0 c937 0 1410 3 1407 10 -2 6 -39 52 -83
104 l-80 95 -1222 0 -1223 1 0 1980 0 1980 935 0 935 0 0 -545 0 -545 545 0
545 0 0 -645 0 -645 105 0 105 0 0 718 0 717 -578 578 -577 577 -1113 0 -1112
0 0 -2190z m2655 1460 l360 -360 -363 0 -362 0 0 360 c0 198 1 360 3 360 1 0
164 -162 362 -360z"/>
<path d="M1580 2815 l0 -105 900 0 900 0 0 105 0 105 -900 0 -900 0 0 -105z"/>
<path d="M1580 2225 l0 -105 650 0 650 0 0 105 0 105 -650 0 -650 0 0 -105z"/>
<path d="M3770 1485 l0 -445 -251 0 c-158 0 -249 -4 -247 -10 2 -5 188 -222
413 -481 226 -259 419 -482 430 -496 l21 -25 407 490 c224 270 410 498 413
506 5 14 -21 16 -240 16 l-246 0 0 445 0 445 -350 0 -350 0 0 -445z m490 -210
l0 -444 144 -3 143 -3 -205 -236 -205 -237 -201 230 c-111 127 -202 235 -204
239 -2 5 51 9 117 9 l121 0 0 445 0 445 145 0 145 0 0 -445z"/>
<path d="M1580 1625 l0 -105 900 0 900 0 0 105 0 105 -900 0 -900 0 0 -105z"/>
</g>
</svg>
